<svg width="112" height="29" viewBox="0 0 112 29" fill="none" xmlns="http://www.w3.org/2000/svg">
<path d="M6.78835 28H0.856534L9.89489 1.81818H17.0284L26.054 28H20.1222L13.5639 7.80114H13.3594L6.78835 28ZM6.41761 17.7088H20.429V22.0298H6.41761V17.7088ZM35.4247 28.3196C33.9332 28.3196 32.5824 27.9361 31.3722 27.169C30.1705 26.3935 29.2159 25.2557 28.5085 23.7557C27.8097 22.2472 27.4602 20.3977 27.4602 18.2074C27.4602 15.9574 27.8224 14.0866 28.5469 12.5952C29.2713 11.0952 30.2344 9.97443 31.4361 9.23295C32.6463 8.48295 33.9716 8.10795 35.4119 8.10795C36.5114 8.10795 37.4276 8.29545 38.1605 8.67045C38.902 9.03693 39.4986 9.49716 39.9503 10.0511C40.4105 10.5966 40.7599 11.1335 40.9986 11.6619H41.1648V1.81818H46.598V28H41.2287V24.8551H40.9986C40.7429 25.4006 40.3807 25.9418 39.9119 26.4787C39.4517 27.0071 38.8509 27.446 38.1094 27.7955C37.3764 28.1449 36.4815 28.3196 35.4247 28.3196ZM37.1506 23.9858C38.0284 23.9858 38.7699 23.7472 39.375 23.2699C39.9886 22.7841 40.4574 22.1065 40.7812 21.2372C41.1136 20.3679 41.2798 19.3494 41.2798 18.1818C41.2798 17.0142 41.1179 16 40.794 15.1392C40.4702 14.2784 40.0014 13.6136 39.3878 13.1449C38.7741 12.6761 38.0284 12.4418 37.1506 12.4418C36.2557 12.4418 35.5014 12.6847 34.8878 13.1705C34.2741 13.6562 33.8097 14.3295 33.4943 15.1903C33.179 16.0511 33.0213 17.0483 33.0213 18.1818C33.0213 19.3239 33.179 20.3338 33.4943 21.2116C33.8182 22.081 34.2827 22.7628 34.8878 23.2571C35.5014 23.7429 36.2557 23.9858 37.1506 23.9858ZM51.0756 28V8.36364H56.266V11.8281H56.4961C56.9052 10.6776 57.587 9.76989 58.5415 9.10511C59.4961 8.44034 60.6381 8.10795 61.9677 8.10795C63.3143 8.10795 64.4606 8.4446 65.4066 9.1179C66.3526 9.78267 66.9833 10.6861 67.2987 11.8281H67.5032C67.9038 10.7031 68.6282 9.80398 69.6765 9.13068C70.7333 8.44886 71.9819 8.10795 73.4222 8.10795C75.2546 8.10795 76.7418 8.69176 77.8839 9.85938C79.0344 11.0185 79.6097 12.6634 79.6097 14.794V28H74.1765V15.8679C74.1765 14.777 73.8867 13.9588 73.3072 13.4134C72.7276 12.8679 72.0032 12.5952 71.1339 12.5952C70.1452 12.5952 69.3739 12.9105 68.82 13.5412C68.266 14.1634 67.989 14.9858 67.989 16.0085V28H62.7092V15.7528C62.7092 14.7898 62.4322 14.0227 61.8782 13.4517C61.3327 12.8807 60.6126 12.5952 59.7177 12.5952C59.1126 12.5952 58.5671 12.7486 58.0813 13.0554C57.604 13.3537 57.2248 13.7756 56.9435 14.321C56.6623 14.858 56.5217 15.4886 56.5217 16.2131V28H51.0756ZM83.9116 28V8.36364H89.3576V28H83.9116ZM86.6474 5.83239C85.8377 5.83239 85.1431 5.56392 84.5636 5.02699C83.9925 4.48153 83.707 3.82954 83.707 3.07102C83.707 2.32102 83.9925 1.67756 84.5636 1.14062C85.1431 0.59517 85.8377 0.322442 86.6474 0.322442C87.457 0.322442 88.1474 0.59517 88.7184 1.14062C89.2979 1.67756 89.5877 2.32102 89.5877 3.07102C89.5877 3.82954 89.2979 4.48153 88.7184 5.02699C88.1474 5.56392 87.457 5.83239 86.6474 5.83239ZM99.1662 16.6477V28H93.7202V8.36364H98.9105V11.8281H99.1406C99.5753 10.6861 100.304 9.78267 101.327 9.1179C102.349 8.4446 103.589 8.10795 105.047 8.10795C106.411 8.10795 107.599 8.40625 108.614 9.00284C109.628 9.59943 110.416 10.4517 110.979 11.5597C111.541 12.6591 111.822 13.9716 111.822 15.4972V28H106.376V16.4688C106.385 15.267 106.078 14.3295 105.456 13.6562C104.834 12.9744 103.977 12.6335 102.886 12.6335C102.153 12.6335 101.506 12.7912 100.943 13.1065C100.389 13.4219 99.9545 13.8821 99.6392 14.4872C99.3324 15.0838 99.1747 15.804 99.1662 16.6477Z" fill="#032543"/>
</svg>
